<?xml version="1.0" encoding="iso-8859-1"?>
<!-- Uploaded to: SVG Repo, www.svgrepo.com, Generator: SVG Repo Mixer Tools -->
<svg height="800px" width="800px" version="1.1" id="Layer_1" xmlns="http://www.w3.org/2000/svg" xmlns:xlink="http://www.w3.org/1999/xlink" 
	 viewBox="0 0 512.868 512.868" xml:space="preserve">
<g>
	<path style="fill:#E6E6E6;" d="M422.617,512.434h-80.705c-12.149,0-20.827-8.678-20.827-19.959V443.01h121.492v49.464
		C442.576,503.756,433.898,512.434,422.617,512.434"/>
	<path style="fill:#E6E6E6;" d="M442.576,78.536H321.085V29.071c0-11.281,8.678-19.959,19.959-19.959h80.705
		c12.149,0,20.827,8.678,20.827,19.959V78.536z"/>
</g>
<g>
	<path style="fill:#802200;" d="M156.203,295.485h-34.712c-5.207,0-8.678-3.471-8.678-8.678c0-5.207,3.471-8.678,8.678-8.678h34.712
		c19.092,0,34.712-15.62,34.712-34.712s-15.62-34.712-34.712-34.712h-26.034c-5.207,0-8.678-3.471-8.678-8.678
		s3.471-8.678,8.678-8.678h26.034c28.637,0,52.068,23.431,52.068,52.068S184.841,295.485,156.203,295.485"/>
	<path style="fill:#ff4500;" d="M199.593,425.654H60.746c-28.637,0-52.068-23.431-52.068-52.068
		c0-28.637,23.431-52.068,52.068-52.068h43.39c5.207,0,8.678,3.471,8.678,8.678c0,5.207-3.471,8.678-8.678,8.678h-43.39
		c-19.092,0-34.712,15.62-34.712,34.712c0,19.092,15.62,34.712,34.712,34.712h138.847c5.207,0,8.678,3.471,8.678,8.678
		C208.271,422.183,204.8,425.654,199.593,425.654"/>
	<path style="fill:#802200;" d="M156.203,78.536c-5.207,0-8.678-3.471-8.678-8.678c0-5.207,3.471-8.678,8.678-8.678
		c28.637,0,52.068-23.431,52.068-52.068c0-5.207,3.471-8.678,8.678-8.678c5.207,0,8.678,3.471,8.678,8.678
		C225.627,47.295,194.386,78.536,156.203,78.536"/>
	<path style="fill:#ff4500;" d="M492.041,443.01H271.62c-11.281,0-19.959-8.678-19.959-19.959V98.495
		c0-11.281,8.678-19.959,19.959-19.959h219.553c12.149,0,20.827,8.678,20.827,19.959v323.688
		C512,434.332,503.322,443.01,492.041,443.01"/>
</g>
<path style="fill:#E6E6E6;" d="M112.814,9.112c-24.298,0-43.39,19.092-43.39,43.39l43.39,459.932l43.39-459.932
	C156.203,28.203,137.112,9.112,112.814,9.112"/>
<path style="fill:#CDCDCD;" d="M112.814,95.892c-5.207,0-8.678-3.471-8.678-8.678V52.502c0-5.207,3.471-8.678,8.678-8.678
	c5.207,0,8.678,3.471,8.678,8.678v34.712C121.492,92.42,118.02,95.892,112.814,95.892"/>
<g>
	<path style="fill:#802200;" d="M251.661,154.034v19.959L425.22,78.536h-17.356h-18.224L251.661,154.034z"/>
	<path style="fill:#802200;" d="M251.661,226.061l4.339,7.81L506.793,86.346c-3.471-5.207-8.678-7.81-14.753-7.81h-6.075
		L251.661,215.647V226.061z"/>
	<path style="fill:#802200;" d="M512,130.603l-4.339-7.81L316.746,235.607l8.678,14.753L512,141.017V130.603z"/>
	<path style="fill:#802200;" d="M251.661,226.061v8.678l257.736,69.424l2.603-8.678v-8.678l-257.736-69.424L251.661,226.061z"/>
	<path style="fill:#802200;" d="M512,182.671l-4.339-7.81l-130.169,78.102l8.678,14.753L512,193.085V182.671z"/>
	<path style="fill:#802200;" d="M512,234.739l-4.339-6.942l-69.424,43.39l9.546,14.753l65.085-40.786v-10.414H512z"/>
	<path style="fill:#802200;" d="M512,295.485l-4.339-7.81L252.529,429.125c1.736,6.075,6.942,10.414,13.017,12.149L512,305.03
		V295.485z"/>
	<path style="fill:#802200;" d="M512,366.644V356.23v-8.678L347.119,443.01h17.356h17.356L512,366.644z"/>
	<path style="fill:#802200;" d="M251.661,278.129v8.678l192.651,53.803l4.339-16.488l-194.386-54.671L251.661,278.129z"/>
	<path style="fill:#802200;" d="M251.661,330.197v8.678l132.773,35.58l4.339-16.488l-134.508-36.447L251.661,330.197z"/>
	<path style="fill:#802200;" d="M251.661,373.586v9.546l75.498,25.166l5.207-16.488l-78.102-26.034L251.661,373.586z"/>
</g>
<path style="fill:#ff4500;" d="M78.102,165.315H52.068C23.431,165.315,0,141.885,0,113.247S23.431,61.18,52.068,61.18h60.746
	c5.207,0,8.678,3.471,8.678,8.678c0,5.207-3.471,8.678-8.678,8.678H52.068c-19.092,0-34.712,15.62-34.712,34.712
	s15.62,34.712,34.712,34.712h26.034c5.207,0,8.678,3.471,8.678,8.678S83.308,165.315,78.102,165.315"/>
</svg>